<?xml version="1.0" standalone="no"?>
<!DOCTYPE svg PUBLIC "-//W3C//DTD SVG 20010904//EN"
 "http://www.w3.org/TR/2001/REC-SVG-20010904/DTD/svg10.dtd">
<svg version="1.0" xmlns="http://www.w3.org/2000/svg"
 width="500.000000pt" height="500.000000pt" viewBox="0 0 500.000000 500.000000"
 preserveAspectRatio="xMidYMid meet">

<g transform="translate(0.000000,500.000000) scale(0.100000,-0.100000)"
fill="#000000" stroke="none">
<path d="M0 2500 l0 -2500 2500 0 2500 0 0 2500 0 2500 -2500 0 -2500 0 0
-2500z m2731 1484 c66 -33 79 -36 130 -31 67 6 69 3 69 -76 -1 -49 -2 -53 -35
-68 -33 -16 -35 -16 -35 2 0 11 -4 19 -10 19 -15 0 -10 -35 20 -135 9 -27 9
-25 5 11 -4 35 -2 42 15 47 18 5 20 0 19 -41 -1 -45 -16 -113 -18 -83 -1 11
-4 10 -15 -4 -11 -16 -17 -17 -42 -7 -16 6 -38 10 -48 9 -26 -3 -32 20 -7 28
15 4 21 15 21 35 0 16 -4 32 -10 35 -6 3 -10 -4 -10 -16 0 -12 -18 -42 -40
-66 -23 -24 -39 -47 -37 -51 3 -4 -9 -17 -24 -30 l-29 -24 -1 29 -1 28 -7 -28
c-6 -29 -6 -29 -83 51 l-78 80 0 95 0 95 35 26 c29 23 35 33 35 65 0 21 3 41
8 45 15 16 103 -4 173 -40z m-348 -111 c20 -38 42 -131 34 -139 -15 -15 -38
19 -32 48 4 17 2 28 -4 28 -6 0 -11 9 -11 19 0 10 -9 29 -19 42 l-20 24 -22
-22 c-27 -26 -30 -77 -5 -101 16 -16 17 -15 6 13 -12 31 -6 75 10 75 16 0 21
-19 10 -39 -8 -16 -5 -26 16 -50 21 -25 23 -31 9 -31 -9 0 -13 -5 -9 -11 3 -6
15 -9 25 -6 12 3 19 0 19 -10 0 -10 -8 -13 -27 -11 -18 2 -36 17 -60 52 -54
78 -38 146 33 146 26 0 36 -6 47 -27z m-59 -188 c14 -14 32 -25 40 -25 25 0
36 -34 36 -107 l0 -69 59 -61 c43 -43 72 -87 104 -154 50 -103 90 -165 62 -97
-20 50 -19 51 12 22 14 -13 37 -27 50 -30 15 -4 22 -12 19 -20 -19 -45 -17
-47 15 -16 40 37 49 39 49 12 0 -13 5 -18 15 -14 32 13 13 -27 -24 -50 -49
-32 -64 -52 -30 -42 63 17 82 19 74 7 -14 -24 -74 -42 -113 -35 -33 6 -122 49
-122 59 0 2 25 -7 56 -21 108 -47 73 -19 -54 45 -188 94 -210 109 -228 158 -9
23 -20 77 -24 120 l-8 78 1 -108 c2 -92 0 -106 -13 -101 -41 18 -134 44 -155
44 -13 0 -30 3 -39 6 -19 7 0 34 104 147 l62 68 11 104 c6 58 12 105 14 105 1
0 13 -11 27 -25z m446 -86 c0 -5 -14 -9 -32 -9 -30 0 -31 0 -13 20 14 15 21
17 32 9 7 -6 13 -15 13 -20z m112 -11 c-7 -7 -12 -8 -12 -2 0 6 3 14 7 17 3 4
9 5 12 2 2 -3 -1 -11 -7 -17z m-22 -87 c17 -33 12 -46 -10 -26 -20 18 -21 18
-50 -3 -36 -27 -47 -28 -55 -1 -8 23 0 35 30 42 46 11 74 7 85 -12z m-817
-374 c40 -22 48 -37 20 -37 -10 0 -43 -12 -73 -26 -39 -19 -73 -27 -116 -28
l-61 -1 26 34 c14 19 46 47 70 63 49 31 70 30 134 -5z m136 -102 c88 -80 161
-228 161 -327 0 -60 -27 -114 -73 -145 -64 -43 -73 -39 -30 13 22 27 46 59 52
72 13 25 5 66 -11 56 -6 -4 -6 1 1 14 24 45 10 54 -17 11 -16 -24 -37 -51 -47
-59 -17 -13 -17 -11 2 20 12 20 26 53 32 75 5 22 14 55 19 73 14 43 7 40 -18
-8 -26 -51 -69 -100 -153 -172 -105 -90 -141 -77 -188 70 l-18 57 0 -60 c-1
-33 6 -87 14 -120 18 -75 18 -75 2 -75 -8 0 -35 -11 -62 -24 l-48 -25 -41 24
c-23 13 -70 31 -106 39 -74 17 -86 30 -96 95 -14 95 29 215 106 291 60 60 112
85 176 84 76 -2 93 -15 84 -61 -4 -21 -11 -47 -15 -58 -6 -16 -5 -18 5 -8 7 6
21 36 30 65 25 74 81 118 151 118 42 0 54 -5 88 -35z m1015 -22 c64 -23 130
-83 163 -147 30 -57 35 -130 19 -262 l-9 -70 48 -91 c36 -69 47 -101 47 -136
0 -69 -12 -77 -38 -26 -33 65 -91 127 -157 170 l-59 38 34 21 c24 16 44 20 76
17 23 -3 42 -1 42 4 0 12 -35 29 -59 29 -26 0 -26 1 1 53 30 57 30 146 0 204
-32 62 -41 60 -19 -5 22 -66 18 -121 -13 -181 -30 -59 -40 -59 -33 -2 3 28 0
79 -6 113 -13 62 -69 193 -111 256 l-22 32 24 0 c12 0 45 -8 72 -17z m-1594
-503 c43 0 127 -39 159 -73 l24 -26 31 26 c50 42 115 65 183 67 55 1 66 -2 89
-25 43 -43 71 -209 44 -260 -17 -32 -80 -24 -244 32 -155 52 -199 57 -226 24
-11 -13 -8 -13 18 -4 50 17 107 -5 163 -63 l49 -51 -43 -27 c-48 -31 -84 -69
-115 -121 -32 -54 -27 -54 23 0 54 58 127 96 220 116 124 26 187 14 262 -49
23 -19 87 -104 107 -143 1 -2 89 14 123 22 19 4 24 -2 38 -52 9 -32 27 -77 40
-101 l24 -42 -42 -27 c-59 -37 -190 -97 -266 -122 -198 -65 -382 -50 -525 42
l-51 32 64 8 c35 4 76 14 92 22 16 9 56 15 96 15 126 0 258 40 350 105 21 15
29 24 18 20 -119 -45 -195 -67 -252 -71 l-68 -5 58 24 c72 31 161 85 188 113
15 16 -3 10 -70 -23 -122 -60 -256 -93 -407 -100 -139 -7 -134 -10 -156 89 -7
32 -13 45 -16 34 -6 -29 18 -164 39 -222 18 -47 23 -53 62 -62 23 -6 92 -43
151 -82 60 -38 114 -70 119 -70 6 0 8 -2 5 -5 -9 -9 -284 14 -310 25 -51 24
-102 164 -132 365 -9 61 -18 124 -21 140 -4 21 -2 26 5 15 5 -8 12 -31 15 -51
4 -21 12 -45 20 -55 11 -16 12 -13 8 27 -13 113 36 257 121 363 26 31 39 53
29 48 -28 -16 -113 -92 -167 -149 -27 -29 -55 -53 -63 -53 -20 0 -43 62 -43
117 1 74 17 130 67 232 l47 95 15 -42 c14 -38 18 -42 51 -42z m1961 -366 c10
-43 6 -144 -5 -144 -2 0 -20 16 -41 35 -41 39 -47 73 -25 145 5 19 10 48 10
65 l1 30 24 -40 c14 -22 30 -63 36 -91z m-50 -169 c10 -24 20 -65 21 -93 3
-61 10 -59 19 6 5 38 8 43 14 25 10 -31 25 -19 26 20 l1 32 13 -40 c8 -22 14
-61 14 -88 1 -51 -4 -56 -74 -71 l-31 -7 1 80 c0 90 -19 133 -22 47 0 -32 -10
-70 -22 -94 -20 -39 -25 -42 -61 -42 -49 0 -51 12 -10 77 36 56 70 144 70 179
0 35 18 21 41 -31z m-917 -244 c3 -4 -14 -15 -37 -24 l-42 -17 28 25 c30 26
42 30 51 16z m-119 -113 c-156 -92 -263 -129 -368 -127 -102 1 -94 14 30 43
65 15 179 49 253 75 74 27 140 49 145 49 6 1 -21 -17 -60 -40z m-1059 -333
c-3 -13 -11 -36 -16 -50 l-10 -25 -140 0 c-78 0 -140 -4 -140 -9 0 -5 -3 -16
-6 -25 -5 -14 9 -16 116 -16 l122 0 -6 -25 c-20 -79 -12 -75 -150 -75 l-125 0
-19 -52 c-25 -68 -66 -98 -133 -98 l-48 0 40 113 c23 61 55 151 72 200 l32 87
208 0 209 0 -6 -25z m224 18 c0 -5 -28 -86 -62 -182 -55 -151 -67 -177 -93
-193 -30 -18 -125 -26 -125 -10 0 9 126 352 131 356 32 28 149 50 149 29z
m546 -18 c-19 -76 -18 -75 -108 -75 l-83 0 -46 -128 c-53 -148 -75 -172 -160
-172 l-49 0 11 28 c6 15 28 74 49 132 21 58 41 113 45 123 6 15 -1 17 -74 17
-45 0 -81 1 -81 3 0 2 7 24 16 50 l16 47 235 0 235 0 -6 -25z m264 -80 c30
-55 59 -107 64 -114 6 -9 21 21 50 100 l41 114 73 3 c70 3 73 2 67 -17 -3 -12
-32 -92 -64 -178 -50 -138 -62 -161 -91 -180 -21 -15 -48 -23 -74 -23 l-42 0
-64 110 c-35 60 -66 108 -68 106 -2 -3 -21 -51 -42 -108 l-38 -103 -71 -3
c-39 -2 -71 0 -71 4 0 6 81 234 131 372 8 21 14 23 76 20 l68 -3 55 -100z
m796 80 c-3 -13 -11 -36 -16 -50 l-10 -25 -139 0 c-128 0 -141 -2 -151 -19 -5
-11 -10 -22 -10 -25 0 -3 57 -6 126 -6 l126 0 -6 -25 c-3 -13 -11 -36 -16 -50
l-10 -25 -129 0 c-109 0 -130 -3 -135 -16 -3 -9 -4 -20 0 -25 3 -5 63 -9 135
-9 143 0 142 1 115 -65 l-15 -35 -157 0 c-154 0 -159 1 -196 26 -26 19 -38 34
-38 51 0 21 91 290 106 315 3 4 100 8 216 8 l210 0 -6 -25z m521 13 c-2 -7
-10 -30 -18 -50 l-13 -38 -148 0 c-135 0 -148 -2 -158 -19 -5 -11 -10 -22 -10
-25 0 -3 66 -6 146 -6 l146 0 -6 -25 c-4 -14 -16 -50 -27 -81 -19 -51 -26 -57
-97 -99 l-77 -45 -162 0 -163 0 18 48 18 47 144 3 c142 3 170 9 170 38 0 11
-29 14 -145 14 -81 0 -145 4 -145 9 0 23 45 128 64 148 12 13 50 38 86 58 l65
35 159 0 c122 0 157 -3 153 -12z m505 -35 l-18 -48 -144 -3 c-142 -3 -170 -9
-170 -38 0 -11 29 -14 145 -14 80 0 145 -3 145 -6 0 -19 -45 -131 -59 -147 -9
-11 -46 -37 -83 -58 l-66 -39 -161 0 c-89 0 -161 1 -161 3 0 2 7 24 16 50 l16
47 149 0 c136 0 149 2 159 19 5 11 10 22 10 25 0 3 -65 6 -145 6 -167 0 -161
-6 -117 99 26 60 31 66 102 107 l75 43 162 0 163 1 -18 -47z m-2717 -498 c0
-5 -13 -9 -30 -10 -32 0 -47 -28 -25 -49 8 -8 15 -7 24 7 18 24 28 21 24 -5
-2 -17 -11 -24 -31 -26 -52 -6 -76 41 -40 80 18 20 78 22 78 3z m174 -2 c9
-17 11 -17 24 1 7 10 19 17 26 15 8 -3 3 -16 -14 -39 -14 -18 -25 -40 -25 -47
0 -7 -6 -13 -14 -13 -10 0 -14 10 -14 28 1 15 -4 38 -11 50 -10 18 -9 22 3 22
8 0 19 -8 25 -17z m232 -10 l11 -28 23 28 c35 40 48 35 40 -15 -4 -24 -9 -46
-12 -50 -9 -16 -23 -7 -23 15 -1 21 -1 22 -15 3 -15 -19 -15 -19 -29 -1 -13
18 -14 18 -20 -3 -12 -38 -29 -26 -22 16 3 20 6 43 6 50 0 23 30 12 41 -15z
m464 17 c-3 -5 -15 -10 -26 -10 -25 0 -25 -16 1 -23 24 -6 27 -42 4 -51 -30
-11 -64 -7 -64 9 0 11 7 14 25 9 15 -4 25 -2 25 5 0 6 -6 11 -13 11 -23 0 -37
21 -26 42 7 12 21 18 45 18 21 0 33 -4 29 -10z m220 -25 c0 -25 -4 -30 -28
-33 -16 -2 -31 -10 -34 -18 -8 -21 -35 -18 -29 4 2 9 8 32 11 50 6 31 9 33 43
30 34 -3 37 -6 37 -33z m175 15 c0 -12 7 -20 16 -20 9 0 18 9 21 20 3 11 12
20 20 20 11 0 13 -8 8 -32 -12 -58 -16 -68 -31 -68 -11 0 -13 6 -9 20 5 16 2
20 -14 20 -14 0 -21 -6 -21 -20 0 -12 -7 -20 -16 -20 -14 0 -15 7 -10 38 3 20
6 43 6 50 0 6 7 12 15 12 8 0 15 -9 15 -20z m290 10 c0 -5 -11 -10 -24 -10
-14 0 -28 -4 -31 -10 -3 -5 3 -10 14 -10 12 0 21 -4 21 -10 0 -5 -9 -10 -20
-10 -11 0 -20 -4 -20 -10 0 -5 9 -10 20 -10 11 0 20 -4 20 -10 0 -5 -18 -10
-41 -10 -34 0 -40 3 -35 18 2 9 7 32 11 50 6 30 10 32 46 32 21 0 39 -4 39
-10z m217 -6 c3 -8 0 -26 -7 -39 -7 -13 -9 -28 -6 -34 4 -6 0 -11 -9 -11 -8 0
-18 7 -21 15 -4 8 -10 15 -15 15 -5 0 -9 -7 -9 -15 0 -8 -7 -15 -16 -15 -13 0
-15 7 -9 43 4 23 9 45 12 50 8 14 73 7 80 -9z m223 6 c0 -5 -11 -10 -25 -10
-14 0 -25 -4 -25 -10 0 -5 9 -10 21 -10 11 0 17 -4 14 -10 -3 -5 -15 -10 -26
-10 -10 0 -19 -4 -19 -10 0 -5 12 -10 26 -10 14 0 23 -4 19 -10 -3 -5 -23 -10
-44 -10 l-38 0 10 50 c10 50 10 50 48 50 22 0 39 -4 39 -10z m-1340 -50 c0 -5
-9 -10 -20 -10 -11 0 -20 5 -20 10 0 6 9 10 20 10 11 0 20 -4 20 -10z"/>
<path d="M2605 3841 l-70 -6 55 -22 c30 -12 75 -28 99 -36 l45 -14 -30 -17
c-27 -15 -28 -16 -4 -12 14 3 42 8 62 11 44 7 68 28 67 58 0 19 -2 20 -11 6
-9 -14 -17 -15 -42 -6 -17 5 -40 18 -52 28 -11 11 -27 18 -35 17 -8 -1 -45 -4
-84 -7z"/>
<path d="M2597 743 c-12 -11 -8 -23 8 -23 8 0 15 7 15 15 0 16 -12 20 -23 8z"/>
<path d="M3270 735 c0 -8 7 -15 15 -15 8 0 15 7 15 15 0 8 -7 15 -15 15 -8 0
-15 -7 -15 -15z"/>
</g>
</svg>
